<mxfile host="Electron" modified="2023-04-16T16:46:18.729Z" agent="Mozilla/5.0 (Windows NT 10.0; Win64; x64) AppleWebKit/537.36 (KHTML, like Gecko) draw.io/21.1.2 Chrome/106.0.5249.199 Electron/21.4.3 Safari/537.36" etag="FNxz-DeVVf0teFFnFWFR" version="21.1.2" type="device">
  <diagram name="Página-1" id="IhEPPV_OxwV58EzHUwT6">
    <mxGraphModel dx="1781" dy="1825" grid="1" gridSize="10" guides="1" tooltips="1" connect="1" arrows="1" fold="1" page="1" pageScale="1" pageWidth="827" pageHeight="1169" math="0" shadow="0">
      <root>
        <mxCell id="0" />
        <mxCell id="1" parent="0" />
        <mxCell id="NPJG7mD3QOWVBxm4tVdt-2" value="Imovel" style="swimlane;fontStyle=2;align=center;verticalAlign=top;childLayout=stackLayout;horizontal=1;startSize=26;horizontalStack=0;resizeParent=1;resizeParentMax=0;resizeLast=0;collapsible=1;marginBottom=0;fontSize=13;" parent="1" vertex="1">
          <mxGeometry x="291" y="-110" width="300" height="398" as="geometry" />
        </mxCell>
        <mxCell id="NPJG7mD3QOWVBxm4tVdt-72" value="- TAXA_COMISSAO_IMOBILIARIA: float = 0.12" style="text;strokeColor=none;fillColor=none;align=left;verticalAlign=top;spacingLeft=4;spacingRight=4;overflow=hidden;rotatable=0;points=[[0,0.5],[1,0.5]];portConstraint=eastwest;shadow=0;fontStyle=4" parent="NPJG7mD3QOWVBxm4tVdt-2" vertex="1">
          <mxGeometry y="26" width="300" height="26" as="geometry" />
        </mxCell>
        <mxCell id="0yZaRweIdktJyx501Hdi-37" value="# TAXA_MAX_DEPRECIACAO: float = 0.30" style="text;strokeColor=none;fillColor=none;align=left;verticalAlign=top;spacingLeft=4;spacingRight=4;overflow=hidden;rotatable=0;points=[[0,0.5],[1,0.5]];portConstraint=eastwest;shadow=0;fontStyle=4" parent="NPJG7mD3QOWVBxm4tVdt-2" vertex="1">
          <mxGeometry y="52" width="300" height="26" as="geometry" />
        </mxCell>
        <mxCell id="NxVUXpiWj4kAhJcI6WHI-5" value="# TRIGGER_DEPRECIACAO: double = 5" style="text;strokeColor=none;fillColor=none;align=left;verticalAlign=top;spacingLeft=4;spacingRight=4;overflow=hidden;rotatable=0;points=[[0,0.5],[1,0.5]];portConstraint=eastwest;shadow=0;fontStyle=4" parent="NPJG7mD3QOWVBxm4tVdt-2" vertex="1">
          <mxGeometry y="78" width="300" height="26" as="geometry" />
        </mxCell>
        <mxCell id="NxVUXpiWj4kAhJcI6WHI-3" value="# anoAtual: int " style="text;strokeColor=none;fillColor=none;align=left;verticalAlign=top;spacingLeft=4;spacingRight=4;overflow=hidden;rotatable=0;points=[[0,0.5],[1,0.5]];portConstraint=eastwest;shadow=0;fontStyle=4" parent="NPJG7mD3QOWVBxm4tVdt-2" vertex="1">
          <mxGeometry y="104" width="300" height="26" as="geometry" />
        </mxCell>
        <mxCell id="NPJG7mD3QOWVBxm4tVdt-17" value="# anoConstrução: String" style="text;strokeColor=none;fillColor=none;align=left;verticalAlign=top;spacingLeft=4;spacingRight=4;overflow=hidden;rotatable=0;points=[[0,0.5],[1,0.5]];portConstraint=eastwest;shadow=0;fontStyle=0" parent="NPJG7mD3QOWVBxm4tVdt-2" vertex="1">
          <mxGeometry y="130" width="300" height="26" as="geometry" />
        </mxCell>
        <mxCell id="NPJG7mD3QOWVBxm4tVdt-14" value="# valorDeVenda: doube" style="text;strokeColor=none;fillColor=none;align=left;verticalAlign=top;spacingLeft=4;spacingRight=4;overflow=hidden;rotatable=0;points=[[0,0.5],[1,0.5]];portConstraint=eastwest;" parent="NPJG7mD3QOWVBxm4tVdt-2" vertex="1">
          <mxGeometry y="156" width="300" height="26" as="geometry" />
        </mxCell>
        <mxCell id="NPJG7mD3QOWVBxm4tVdt-65" value="# itensDisponiveis: List&lt;InstensDisponiveis&gt; " style="text;strokeColor=none;fillColor=none;align=left;verticalAlign=top;spacingLeft=4;spacingRight=4;overflow=hidden;rotatable=0;points=[[0,0.5],[1,0.5]];portConstraint=eastwest;" parent="NPJG7mD3QOWVBxm4tVdt-2" vertex="1">
          <mxGeometry y="182" width="300" height="26" as="geometry" />
        </mxCell>
        <mxCell id="NPJG7mD3QOWVBxm4tVdt-15" value="- endereco: String" style="text;strokeColor=none;fillColor=none;align=left;verticalAlign=top;spacingLeft=4;spacingRight=4;overflow=hidden;rotatable=0;points=[[0,0.5],[1,0.5]];portConstraint=eastwest;" parent="NPJG7mD3QOWVBxm4tVdt-2" vertex="1">
          <mxGeometry y="208" width="300" height="26" as="geometry" />
        </mxCell>
        <mxCell id="NPJG7mD3QOWVBxm4tVdt-4" value="" style="line;strokeWidth=1;fillColor=none;align=left;verticalAlign=middle;spacingTop=-1;spacingLeft=3;spacingRight=3;rotatable=0;labelPosition=right;points=[];portConstraint=eastwest;strokeColor=inherit;" parent="NPJG7mD3QOWVBxm4tVdt-2" vertex="1">
          <mxGeometry y="234" width="300" height="8" as="geometry" />
        </mxCell>
        <mxCell id="NPJG7mD3QOWVBxm4tVdt-78" value="+ calcValorAluguel(): double" style="text;strokeColor=none;fillColor=none;align=left;verticalAlign=top;spacingLeft=4;spacingRight=4;overflow=hidden;rotatable=0;points=[[0,0.5],[1,0.5]];portConstraint=eastwest;fontStyle=2" parent="NPJG7mD3QOWVBxm4tVdt-2" vertex="1">
          <mxGeometry y="242" width="300" height="26" as="geometry" />
        </mxCell>
        <mxCell id="NxVUXpiWj4kAhJcI6WHI-12" value="+ calcGanhoPropietario(): double" style="text;strokeColor=none;fillColor=none;align=left;verticalAlign=top;spacingLeft=4;spacingRight=4;overflow=hidden;rotatable=0;points=[[0,0.5],[1,0.5]];portConstraint=eastwest;fontStyle=2" parent="NPJG7mD3QOWVBxm4tVdt-2" vertex="1">
          <mxGeometry y="268" width="300" height="26" as="geometry" />
        </mxCell>
        <mxCell id="0yZaRweIdktJyx501Hdi-26" value="+ calcGanhoImobiliaria():double" style="text;strokeColor=none;fillColor=none;align=left;verticalAlign=top;spacingLeft=4;spacingRight=4;overflow=hidden;rotatable=0;points=[[0,0.5],[1,0.5]];portConstraint=eastwest;fontStyle=0" parent="NPJG7mD3QOWVBxm4tVdt-2" vertex="1">
          <mxGeometry y="294" width="300" height="26" as="geometry" />
        </mxCell>
        <mxCell id="NPJG7mD3QOWVBxm4tVdt-74" value="# calcDepreciacao(): double" style="text;strokeColor=none;fillColor=none;align=left;verticalAlign=top;spacingLeft=4;spacingRight=4;overflow=hidden;rotatable=0;points=[[0,0.5],[1,0.5]];portConstraint=eastwest;fontStyle=2" parent="NPJG7mD3QOWVBxm4tVdt-2" vertex="1">
          <mxGeometry y="320" width="300" height="26" as="geometry" />
        </mxCell>
        <mxCell id="NxVUXpiWj4kAhJcI6WHI-11" value="# calcAdicionaisItensDisponiveis(); double" style="text;strokeColor=none;fillColor=none;align=left;verticalAlign=top;spacingLeft=4;spacingRight=4;overflow=hidden;rotatable=0;points=[[0,0.5],[1,0.5]];portConstraint=eastwest;fontStyle=0" parent="NPJG7mD3QOWVBxm4tVdt-2" vertex="1">
          <mxGeometry y="346" width="300" height="26" as="geometry" />
        </mxCell>
        <mxCell id="KgybD2NkIVu5NqHdKEvN-1" value="+ addItemAdicional();void" style="text;strokeColor=none;fillColor=none;align=left;verticalAlign=top;spacingLeft=4;spacingRight=4;overflow=hidden;rotatable=0;points=[[0,0.5],[1,0.5]];portConstraint=eastwest;fontStyle=0" parent="NPJG7mD3QOWVBxm4tVdt-2" vertex="1">
          <mxGeometry y="372" width="300" height="26" as="geometry" />
        </mxCell>
        <mxCell id="NPJG7mD3QOWVBxm4tVdt-10" value="Apartamento" style="swimlane;fontStyle=1;align=center;verticalAlign=top;childLayout=stackLayout;horizontal=1;startSize=26;horizontalStack=0;resizeParent=1;resizeParentMax=0;resizeLast=0;collapsible=1;marginBottom=0;" parent="1" vertex="1">
          <mxGeometry x="170" y="360" width="250" height="190" as="geometry" />
        </mxCell>
        <mxCell id="NPJG7mD3QOWVBxm4tVdt-11" value="- ALIQUOTA_ALUGUEL: float = 0.04" style="text;strokeColor=none;fillColor=none;align=left;verticalAlign=top;spacingLeft=4;spacingRight=4;overflow=hidden;rotatable=0;points=[[0,0.5],[1,0.5]];portConstraint=eastwest;fontStyle=4" parent="NPJG7mD3QOWVBxm4tVdt-10" vertex="1">
          <mxGeometry y="26" width="250" height="26" as="geometry" />
        </mxCell>
        <mxCell id="0yZaRweIdktJyx501Hdi-11" value="- ALIQUOTA_DEPRECIACAO: = 0.05" style="text;strokeColor=none;fillColor=none;align=left;verticalAlign=top;spacingLeft=4;spacingRight=4;overflow=hidden;rotatable=0;points=[[0,0.5],[1,0.5]];portConstraint=eastwest;fontStyle=4" parent="NPJG7mD3QOWVBxm4tVdt-10" vertex="1">
          <mxGeometry y="52" width="250" height="26" as="geometry" />
        </mxCell>
        <mxCell id="NPJG7mD3QOWVBxm4tVdt-21" value="- condominio: double" style="text;strokeColor=none;fillColor=none;align=left;verticalAlign=top;spacingLeft=4;spacingRight=4;overflow=hidden;rotatable=0;points=[[0,0.5],[1,0.5]];portConstraint=eastwest;" parent="NPJG7mD3QOWVBxm4tVdt-10" vertex="1">
          <mxGeometry y="78" width="250" height="26" as="geometry" />
        </mxCell>
        <mxCell id="NPJG7mD3QOWVBxm4tVdt-12" value="" style="line;strokeWidth=1;fillColor=none;align=left;verticalAlign=middle;spacingTop=-1;spacingLeft=3;spacingRight=3;rotatable=0;labelPosition=right;points=[];portConstraint=eastwest;strokeColor=inherit;" parent="NPJG7mD3QOWVBxm4tVdt-10" vertex="1">
          <mxGeometry y="104" width="250" height="8" as="geometry" />
        </mxCell>
        <mxCell id="0yZaRweIdktJyx501Hdi-34" value="- calcValorAluguel(): double" style="text;strokeColor=none;fillColor=none;align=left;verticalAlign=top;spacingLeft=4;spacingRight=4;overflow=hidden;rotatable=0;points=[[0,0.5],[1,0.5]];portConstraint=eastwest;" parent="NPJG7mD3QOWVBxm4tVdt-10" vertex="1">
          <mxGeometry y="112" width="250" height="26" as="geometry" />
        </mxCell>
        <mxCell id="NxVUXpiWj4kAhJcI6WHI-10" value="- calcGanhoPropietario(): double" style="text;strokeColor=none;fillColor=none;align=left;verticalAlign=top;spacingLeft=4;spacingRight=4;overflow=hidden;rotatable=0;points=[[0,0.5],[1,0.5]];portConstraint=eastwest;" parent="NPJG7mD3QOWVBxm4tVdt-10" vertex="1">
          <mxGeometry y="138" width="250" height="26" as="geometry" />
        </mxCell>
        <mxCell id="0yZaRweIdktJyx501Hdi-39" value="# calcDepreciacao(): double" style="text;strokeColor=none;fillColor=none;align=left;verticalAlign=top;spacingLeft=4;spacingRight=4;overflow=hidden;rotatable=0;points=[[0,0.5],[1,0.5]];portConstraint=eastwest;" parent="NPJG7mD3QOWVBxm4tVdt-10" vertex="1">
          <mxGeometry y="164" width="250" height="26" as="geometry" />
        </mxCell>
        <mxCell id="NPJG7mD3QOWVBxm4tVdt-28" value="Casa" style="swimlane;fontStyle=1;align=center;verticalAlign=top;childLayout=stackLayout;horizontal=1;startSize=26;horizontalStack=0;resizeParent=1;resizeParentMax=0;resizeLast=0;collapsible=1;marginBottom=0;" parent="1" vertex="1">
          <mxGeometry x="470" y="360" width="250" height="190" as="geometry" />
        </mxCell>
        <mxCell id="NPJG7mD3QOWVBxm4tVdt-29" value="- ALIQUOTA_ALUGUEL: float = 0.05" style="text;strokeColor=none;fillColor=none;align=left;verticalAlign=top;spacingLeft=4;spacingRight=4;overflow=hidden;rotatable=0;points=[[0,0.5],[1,0.5]];portConstraint=eastwest;fontStyle=4" parent="NPJG7mD3QOWVBxm4tVdt-28" vertex="1">
          <mxGeometry y="26" width="250" height="26" as="geometry" />
        </mxCell>
        <mxCell id="0yZaRweIdktJyx501Hdi-10" value="- TAXA_DEPRECIACAO: fload = 0.10" style="text;strokeColor=none;fillColor=none;align=left;verticalAlign=top;spacingLeft=4;spacingRight=4;overflow=hidden;rotatable=0;points=[[0,0.5],[1,0.5]];portConstraint=eastwest;fontStyle=4" parent="NPJG7mD3QOWVBxm4tVdt-28" vertex="1">
          <mxGeometry y="52" width="250" height="26" as="geometry" />
        </mxCell>
        <mxCell id="NPJG7mD3QOWVBxm4tVdt-31" value="- seguroIncendio: double" style="text;strokeColor=none;fillColor=none;align=left;verticalAlign=top;spacingLeft=4;spacingRight=4;overflow=hidden;rotatable=0;points=[[0,0.5],[1,0.5]];portConstraint=eastwest;" parent="NPJG7mD3QOWVBxm4tVdt-28" vertex="1">
          <mxGeometry y="78" width="250" height="26" as="geometry" />
        </mxCell>
        <mxCell id="NPJG7mD3QOWVBxm4tVdt-33" value="" style="line;strokeWidth=1;fillColor=none;align=left;verticalAlign=middle;spacingTop=-1;spacingLeft=3;spacingRight=3;rotatable=0;labelPosition=right;points=[];portConstraint=eastwest;strokeColor=inherit;" parent="NPJG7mD3QOWVBxm4tVdt-28" vertex="1">
          <mxGeometry y="104" width="250" height="8" as="geometry" />
        </mxCell>
        <mxCell id="0yZaRweIdktJyx501Hdi-35" value="- calcValorAluguel(): double" style="text;strokeColor=none;fillColor=none;align=left;verticalAlign=top;spacingLeft=4;spacingRight=4;overflow=hidden;rotatable=0;points=[[0,0.5],[1,0.5]];portConstraint=eastwest;" parent="NPJG7mD3QOWVBxm4tVdt-28" vertex="1">
          <mxGeometry y="112" width="250" height="26" as="geometry" />
        </mxCell>
        <mxCell id="NxVUXpiWj4kAhJcI6WHI-9" value="- calcGanhoPropietario(): double" style="text;strokeColor=none;fillColor=none;align=left;verticalAlign=top;spacingLeft=4;spacingRight=4;overflow=hidden;rotatable=0;points=[[0,0.5],[1,0.5]];portConstraint=eastwest;" parent="NPJG7mD3QOWVBxm4tVdt-28" vertex="1">
          <mxGeometry y="138" width="250" height="26" as="geometry" />
        </mxCell>
        <mxCell id="0yZaRweIdktJyx501Hdi-40" value="# calcDepreciacao(): double" style="text;strokeColor=none;fillColor=none;align=left;verticalAlign=top;spacingLeft=4;spacingRight=4;overflow=hidden;rotatable=0;points=[[0,0.5],[1,0.5]];portConstraint=eastwest;" parent="NPJG7mD3QOWVBxm4tVdt-28" vertex="1">
          <mxGeometry y="164" width="250" height="26" as="geometry" />
        </mxCell>
        <mxCell id="NPJG7mD3QOWVBxm4tVdt-44" value="APP" style="swimlane;fontStyle=1;align=center;verticalAlign=top;childLayout=stackLayout;horizontal=1;startSize=26;horizontalStack=0;resizeParent=1;resizeParentMax=0;resizeLast=0;collapsible=1;marginBottom=0;fontSize=13;" parent="1" vertex="1">
          <mxGeometry x="670" y="-4" width="220" height="138" as="geometry" />
        </mxCell>
        <mxCell id="NPJG7mD3QOWVBxm4tVdt-45" value="- imovieis: List&lt;String&gt; " style="text;strokeColor=none;fillColor=none;align=left;verticalAlign=top;spacingLeft=4;spacingRight=4;overflow=hidden;rotatable=0;points=[[0,0.5],[1,0.5]];portConstraint=eastwest;shadow=0;fontStyle=4" parent="NPJG7mD3QOWVBxm4tVdt-44" vertex="1">
          <mxGeometry y="26" width="220" height="26" as="geometry" />
        </mxCell>
        <mxCell id="NPJG7mD3QOWVBxm4tVdt-71" style="text;strokeColor=none;fillColor=none;align=left;verticalAlign=top;spacingLeft=4;spacingRight=4;overflow=hidden;rotatable=0;points=[[0,0.5],[1,0.5]];portConstraint=eastwest;shadow=0;fontStyle=4" parent="NPJG7mD3QOWVBxm4tVdt-44" vertex="1">
          <mxGeometry y="52" width="220" height="26" as="geometry" />
        </mxCell>
        <mxCell id="NPJG7mD3QOWVBxm4tVdt-50" value="" style="line;strokeWidth=1;fillColor=none;align=left;verticalAlign=middle;spacingTop=-1;spacingLeft=3;spacingRight=3;rotatable=0;labelPosition=right;points=[];portConstraint=eastwest;strokeColor=inherit;" parent="NPJG7mD3QOWVBxm4tVdt-44" vertex="1">
          <mxGeometry y="78" width="220" height="8" as="geometry" />
        </mxCell>
        <mxCell id="NPJG7mD3QOWVBxm4tVdt-53" value="+ relatorioComercial(); void&#xa;" style="text;strokeColor=none;fillColor=none;align=left;verticalAlign=top;spacingLeft=4;spacingRight=4;overflow=hidden;rotatable=0;points=[[0,0.5],[1,0.5]];portConstraint=eastwest;" parent="NPJG7mD3QOWVBxm4tVdt-44" vertex="1">
          <mxGeometry y="86" width="220" height="26" as="geometry" />
        </mxCell>
        <mxCell id="NPJG7mD3QOWVBxm4tVdt-54" value="+ buscarImovel(); void" style="text;strokeColor=none;fillColor=none;align=left;verticalAlign=top;spacingLeft=4;spacingRight=4;overflow=hidden;rotatable=0;points=[[0,0.5],[1,0.5]];portConstraint=eastwest;" parent="NPJG7mD3QOWVBxm4tVdt-44" vertex="1">
          <mxGeometry y="112" width="220" height="26" as="geometry" />
        </mxCell>
        <mxCell id="0yZaRweIdktJyx501Hdi-4" value="Extends" style="endArrow=block;endSize=16;endFill=0;html=1;rounded=0;" parent="1" source="NPJG7mD3QOWVBxm4tVdt-10" target="NPJG7mD3QOWVBxm4tVdt-2" edge="1">
          <mxGeometry width="160" relative="1" as="geometry">
            <mxPoint x="431" y="350" as="sourcePoint" />
            <mxPoint x="422" y="266" as="targetPoint" />
          </mxGeometry>
        </mxCell>
        <mxCell id="0yZaRweIdktJyx501Hdi-8" value="Extends" style="endArrow=block;endSize=16;endFill=0;html=1;rounded=0;exitX=0.5;exitY=0;exitDx=0;exitDy=0;" parent="1" source="NPJG7mD3QOWVBxm4tVdt-28" target="NPJG7mD3QOWVBxm4tVdt-2" edge="1">
          <mxGeometry width="160" relative="1" as="geometry">
            <mxPoint x="421" y="260" as="sourcePoint" />
            <mxPoint x="451" y="270" as="targetPoint" />
          </mxGeometry>
        </mxCell>
        <mxCell id="0yZaRweIdktJyx501Hdi-12" value="InstensDisponiveis" style="swimlane;fontStyle=1;align=center;verticalAlign=top;childLayout=stackLayout;horizontal=1;startSize=26;horizontalStack=0;resizeParent=1;resizeParentMax=0;resizeLast=0;collapsible=1;marginBottom=0;fontSize=13;" parent="1" vertex="1">
          <mxGeometry x="-10" y="-4" width="220" height="86" as="geometry" />
        </mxCell>
        <mxCell id="0yZaRweIdktJyx501Hdi-13" value="-nome: String" style="text;strokeColor=none;fillColor=none;align=left;verticalAlign=top;spacingLeft=4;spacingRight=4;overflow=hidden;rotatable=0;points=[[0,0.5],[1,0.5]];portConstraint=eastwest;shadow=0;fontStyle=0" parent="0yZaRweIdktJyx501Hdi-12" vertex="1">
          <mxGeometry y="26" width="220" height="26" as="geometry" />
        </mxCell>
        <mxCell id="0yZaRweIdktJyx501Hdi-14" value="-valor: Double" style="text;strokeColor=none;fillColor=none;align=left;verticalAlign=top;spacingLeft=4;spacingRight=4;overflow=hidden;rotatable=0;points=[[0,0.5],[1,0.5]];portConstraint=eastwest;shadow=0;fontStyle=0" parent="0yZaRweIdktJyx501Hdi-12" vertex="1">
          <mxGeometry y="52" width="220" height="26" as="geometry" />
        </mxCell>
        <mxCell id="0yZaRweIdktJyx501Hdi-15" value="" style="line;strokeWidth=1;fillColor=none;align=left;verticalAlign=middle;spacingTop=-1;spacingLeft=3;spacingRight=3;rotatable=0;labelPosition=right;points=[];portConstraint=eastwest;strokeColor=inherit;" parent="0yZaRweIdktJyx501Hdi-12" vertex="1">
          <mxGeometry y="78" width="220" height="8" as="geometry" />
        </mxCell>
        <mxCell id="0yZaRweIdktJyx501Hdi-24" value="" style="endArrow=diamondThin;endFill=0;endSize=24;html=1;rounded=0;" parent="1" source="NPJG7mD3QOWVBxm4tVdt-2" target="NPJG7mD3QOWVBxm4tVdt-44" edge="1">
          <mxGeometry width="160" relative="1" as="geometry">
            <mxPoint x="610" y="220" as="sourcePoint" />
            <mxPoint x="770" y="220" as="targetPoint" />
          </mxGeometry>
        </mxCell>
        <mxCell id="0yZaRweIdktJyx501Hdi-25" value="" style="endArrow=diamondThin;endFill=1;endSize=24;html=1;rounded=0;" parent="1" source="0yZaRweIdktJyx501Hdi-12" target="NPJG7mD3QOWVBxm4tVdt-2" edge="1">
          <mxGeometry width="160" relative="1" as="geometry">
            <mxPoint x="340" y="170" as="sourcePoint" />
            <mxPoint x="500" y="170" as="targetPoint" />
          </mxGeometry>
        </mxCell>
      </root>
    </mxGraphModel>
  </diagram>
</mxfile>
